<svg width="12" height="14" viewBox="0 0 12 14" fill="none" xmlns="http://www.w3.org/2000/svg">
<path fill-rule="evenodd" clip-rule="evenodd" d="M5.24712 2.4667C3.23485 2.4667 1.60359 4.23104 1.60359 6.40747C1.60359 8.58389 3.23485 10.3482 5.24712 10.3482C7.25938 10.3482 8.89065 8.58389 8.89065 6.40747C8.89065 4.23104 7.25938 2.4667 5.24712 2.4667ZM0.124268 6.40747C0.124268 3.34738 2.41785 0.866699 5.24712 0.866699C8.07639 0.866699 10.37 3.34738 10.37 6.40747C10.37 9.46755 8.07639 11.9482 5.24712 11.9482C2.41785 11.9482 0.124268 9.46755 0.124268 6.40747Z" fill="#09204F"/>
<path fill-rule="evenodd" clip-rule="evenodd" d="M7.81979 9.18988C8.10865 8.87746 8.57697 8.87746 8.86583 9.18988L11.2492 11.7677C11.538 12.0801 11.538 12.5866 11.2492 12.899C10.9603 13.2115 10.492 13.2115 10.2031 12.899L7.81979 10.3213C7.53094 10.0088 7.53094 9.5023 7.81979 9.18988Z" fill="#09204F"/>
</svg>
